<svg xmlns="http://www.w3.org/2000/svg" viewBox="0 0 100 100" fill="currentColor">
  <path d="M50 10 C27 10 8 29 8 52 C8 70 19 85 35 90 C37 90 38 89 38 87 L38 82 C25 85 23 76 23 76 C21 71 19 69 19 69 C15 66 19 66 19 66 C23 67 25 71 25 71 C29 78 35 76 38 75 C38 72 39 70 41 69 C32 68 23 65 23 52 C23 47 25 43 28 40 C27 39 26 35 28 30 C28 30 32 29 38 33 C41 32 44 32 47 32 C50 32 53 32 56 33 C62 29 66 30 66 30 C68 35 67 39 66 40 C69 43 71 47 71 52 C71 65 62 68 53 69 C55 70 56 73 56 76 L56 87 C56 89 57 90 59 90 C75 85 86 70 86 52 C86 29 67 10 50 10 Z" fill="#181717"/>
</svg>