<svg xmlns="http://www.w3.org/2000/svg" viewBox="0 0 100 100" fill="currentColor">
  <path d="M50 10 C30 10 25 20 25 30 L25 40 L50 40 L50 45 L20 45 C15 45 10 50 10 60 C10 70 15 75 20 75 L30 75 L30 65 C30 60 35 55 40 55 L60 55 C65 55 70 50 70 45 L70 25 C70 20 65 10 50 10 Z M40 20 C43 20 45 22 45 25 C45 28 43 30 40 30 C37 30 35 28 35 25 C35 22 37 20 40 20 Z" fill="#3776ab"/>
  <path d="M50 90 C70 90 75 80 75 70 L75 60 L50 60 L50 55 L80 55 C85 55 90 50 90 40 C90 30 85 25 80 25 L70 25 L70 35 C70 40 65 45 60 45 L40 45 C35 45 30 50 30 55 L30 75 C30 80 35 90 50 90 Z M60 80 C57 80 55 78 55 75 C55 72 57 70 60 70 C63 70 65 72 65 75 C65 78 63 80 60 80 Z" fill="#ffd343"/>
</svg>